<svg width="128" height="33" viewBox="0 0 128 33" fill="none" xmlns="http://www.w3.org/2000/svg">
<path d="M14.2573 27.2549L27.8469 19.3729V24.1152L13.9236 32.0116L0 24.0212V7.96138L13.909 0L27.8469 7.96138L27.8397 15.4392L23.8274 17.7271V10.3001L23.4646 10.0906L14.2501 4.82153L13.8872 4.61944L13.5244 4.82153L4.35334 10.0906L3.9907 10.3001V21.7259L4.35334 21.9353L6.47198 23.1622L7.5677 23.7975V12.3353L13.9236 8.66885L20.2721 12.3353V19.6687L15.0336 22.8087V18.2687L16.0059 17.6406L16.3323 17.4241V17.0414L16.3468 15.035V14.609L15.9842 14.3997L14.2935 13.4398L13.9381 13.2305L13.5753 13.4326L11.8484 14.3853L11.4784 14.5874V26.0134L11.8267 26.2299L13.5172 27.2477L13.88 27.4715L14.2573 27.2549" fill="#00ADB3"/>
<path fill-rule="evenodd" clip-rule="evenodd" d="M83.6162 22.8703C84.0762 22.8703 84.4968 22.831 84.8777 22.7524C85.2586 22.6737 85.6146 22.5558 85.9452 22.3984L85.1475 19.9316C85.0179 20.0172 84.8813 20.0853 84.7376 20.1352C84.5938 20.1854 84.4 20.2104 84.1553 20.2104C83.7818 20.2104 83.4942 20.0959 83.2928 19.8671C83.1491 19.724 83.0519 19.549 83.0018 19.3416C82.9515 19.1342 82.9262 18.909 82.9262 18.6658V14.59H85.5138V12.1876H82.9262V8.96967H80.1015V12.1876H78.2472V14.59H80.1015V19.2023C80.1015 20.3892 80.4392 21.3044 81.1149 21.948C81.4024 22.2341 81.7582 22.4593 82.1824 22.6236C82.6066 22.7882 83.0843 22.8703 83.6162 22.8703ZM70.6244 22.6987V17.5506C70.6244 17.1214 70.6783 16.7174 70.786 16.3384C70.8938 15.9593 71.052 15.6304 71.2605 15.3515C71.4688 15.0727 71.7205 14.8511 72.0151 14.6865C72.3097 14.5222 72.6512 14.4399 73.0393 14.4399C73.6863 14.4399 74.1787 14.6223 74.5164 14.987C74.8544 15.3515 75.0233 15.9129 75.0233 16.6708V22.6987H77.8481V16.3276C77.8481 15.6556 77.7654 15.0441 77.6 14.4935C77.4348 13.943 77.1905 13.471 76.8669 13.0776C76.5435 12.6845 76.1302 12.3806 75.6271 12.166C75.1239 11.9514 74.5415 11.8443 73.8805 11.8443C73.1615 11.8443 72.522 11.998 71.9612 12.3055C71.5875 12.5105 71.0844 12.9288 70.4517 13.5605V12.1876H67.7993V22.6987H70.6244ZM58.8398 16.0916H63.9504C63.9359 15.9058 63.8749 15.6985 63.7671 15.4695C63.6592 15.2406 63.5012 15.0262 63.2928 14.8261C63.0841 14.6259 62.8255 14.4613 62.5164 14.3326C62.2073 14.2039 61.8371 14.1396 61.4059 14.1396C60.8022 14.1396 60.2701 14.3112 59.8101 14.6545C59.3501 14.9976 59.0267 15.4768 58.8398 16.0916ZM61.5137 23.0418C62.707 23.0418 63.7168 22.7774 64.5432 22.2483C65.3699 21.7192 66.0277 21.0256 66.5165 20.1674L64.1659 19.0091C63.9216 19.4525 63.5874 19.8207 63.1632 20.1139C62.7392 20.407 62.2037 20.5535 61.5568 20.5535C61.2262 20.5535 60.9028 20.5071 60.5864 20.4142C60.2701 20.3213 59.9791 20.1712 59.7131 19.9636C59.4471 19.7562 59.2243 19.499 59.0446 19.1915C58.8649 18.884 58.7464 18.5157 58.6889 18.0867H66.6459C66.6459 18.001 66.6531 17.9223 66.6674 17.8508C66.6674 17.7794 66.6746 17.7007 66.6889 17.6148V17.3574C66.6889 16.5709 66.574 15.8414 66.344 15.1694C66.114 14.4972 65.776 13.9144 65.3304 13.421C64.8847 12.9275 64.3313 12.5415 63.6699 12.2627C63.0088 11.9836 62.254 11.8443 61.4059 11.8443C60.6009 11.8443 59.864 11.9944 59.1955 12.2947C58.5271 12.595 57.9485 12.9992 57.4597 13.5068C56.971 14.0145 56.59 14.608 56.317 15.2873C56.0437 15.9665 55.9072 16.6852 55.9072 17.4431C55.9072 18.2582 56.0473 19.0055 56.3276 19.6847C56.6079 20.364 56.9997 20.9541 57.5028 21.4546C58.0061 21.955 58.5991 22.345 59.2819 22.6236C59.9646 22.9025 60.7086 23.0418 61.5137 23.0418ZM56.2415 12.1876L51.6915 22.6987H48.9097L44.403 12.1876H47.616L50.2469 18.8804H50.3978L53.05 12.1876H56.2415ZM41.8908 16.0916H36.7804C36.9673 15.4768 37.2907 14.9976 37.7507 14.6545C38.2107 14.3112 38.7426 14.1396 39.3463 14.1396C39.7777 14.1396 40.1478 14.2039 40.4568 14.3326C40.7659 14.4613 41.0247 14.6259 41.2332 14.8261C41.4417 15.0262 41.5998 15.2406 41.7077 15.4695C41.8153 15.6985 41.8765 15.9058 41.8908 16.0916ZM42.4838 22.2483C41.6572 22.7774 40.6474 23.0418 39.4541 23.0418C38.6492 23.0418 37.9052 22.9025 37.2223 22.6236C36.5395 22.345 35.9465 21.955 35.4434 21.4546C34.9401 20.9541 34.5485 20.364 34.268 19.6847C33.9879 19.0055 33.8477 18.2582 33.8477 17.4431C33.8477 16.6852 33.9843 15.9665 34.2574 15.2873C34.5304 14.608 34.9114 14.0145 35.4001 13.5068C35.8889 12.9992 36.4677 12.595 37.1361 12.2947C37.8046 11.9944 38.5413 11.8443 39.3463 11.8443C40.1946 11.8443 40.9493 11.9836 41.6105 12.2627C42.2717 12.5415 42.8253 12.9275 43.271 13.421C43.7166 13.9144 44.0544 14.4972 44.2844 15.1694C44.5144 15.8414 44.6295 16.5709 44.6295 17.3574V17.6148C44.6151 17.7007 44.6078 17.7794 44.6078 17.8508C44.5935 17.9223 44.5863 18.001 44.5863 18.0867H36.6294C36.6868 18.5157 36.8053 18.884 36.9852 19.1915C37.1649 19.499 37.3877 19.7562 37.6537 19.9636C37.9195 20.1712 38.2107 20.3213 38.527 20.4142C38.8432 20.5071 39.1668 20.5535 39.4972 20.5535C40.1441 20.5535 40.6796 20.407 41.1038 20.1139C41.528 19.8207 41.8622 19.4525 42.1065 19.0091L44.4569 20.1674C43.9681 21.0256 43.3105 21.7192 42.4838 22.2483Z" fill="#093E60"/>
<path fill-rule="evenodd" clip-rule="evenodd" d="M102.943 8.9483C102.583 9.29862 102.152 9.47378 101.649 9.47378C101.405 9.47378 101.171 9.42734 100.948 9.33426C100.725 9.24137 100.531 9.11265 100.366 8.9483C100.201 8.78375 100.071 8.59437 99.9778 8.37977C99.8843 8.16518 99.8376 7.92936 99.8376 7.67192C99.8376 7.41448 99.8843 7.17847 99.9778 6.96407C100.071 6.74947 100.201 6.5599 100.366 6.39554C100.531 6.231 100.725 6.10228 100.948 6.00939C101.171 5.9165 101.405 5.87006 101.649 5.87006C102.152 5.87006 102.583 6.04522 102.943 6.39554C103.302 6.74587 103.482 7.17127 103.482 7.67192C103.482 8.17238 103.302 8.59778 102.943 8.9483ZM107.673 20.2425V26.1415H104.848V10.997H107.501V12.2625C108.027 11.7026 108.487 11.3236 108.881 11.1255C109.472 10.8285 110.103 10.6537 110.908 10.6537C111.584 10.6537 112.227 10.793 112.838 11.072C113.449 11.3509 113.988 11.7369 114.455 12.2303C114.922 12.7238 115.292 13.3137 115.565 14.0001C115.839 14.6866 115.975 15.4373 115.975 16.2524C115.975 17.0676 115.839 17.8185 115.565 18.5049C115.292 19.1913 114.922 19.7813 114.455 20.2747C113.988 20.7682 113.449 21.1543 112.838 21.433C112.227 21.7119 111.584 21.8512 110.908 21.8512C110.103 21.8512 109.427 21.694 108.881 21.3794C108.334 21.0649 107.932 20.6859 107.673 20.2425ZM125.142 21.0577C124.316 21.5867 123.306 21.8512 122.113 21.8512C121.308 21.8512 120.564 21.7119 119.881 21.433C119.198 21.1543 118.605 20.7644 118.102 20.2639C117.599 19.7635 117.207 19.1733 116.927 18.4941C116.646 17.8149 116.506 17.0676 116.506 16.2524C116.506 15.4945 116.643 14.7759 116.916 14.0966C117.189 13.4174 117.57 12.8239 118.059 12.3162C118.548 11.8085 119.126 11.4044 119.795 11.1041C120.463 10.8038 121.2 10.6537 122.005 10.6537C122.853 10.6537 123.608 10.793 124.269 11.072C124.931 11.3509 125.484 11.7369 125.93 12.2303C126.375 12.7238 126.713 13.3065 126.943 13.9787C127.173 14.6508 127.288 15.3802 127.288 16.1667V16.4242C127.274 16.5101 127.267 16.5887 127.267 16.6602C127.252 16.7317 127.245 16.8103 127.245 16.896H119.288C119.345 17.325 119.464 17.6934 119.644 18.0008C119.824 18.3083 120.046 18.5656 120.312 18.773C120.578 18.9805 120.869 19.1307 121.186 19.2236C121.502 19.3165 121.825 19.3629 122.156 19.3629C122.803 19.3629 123.338 19.2164 123.762 18.9233C124.187 18.63 124.521 18.2619 124.765 17.8185L127.116 18.9767C126.627 19.8349 125.969 20.5286 125.142 21.0577ZM119.439 14.901H124.55C124.535 14.7152 124.474 14.5078 124.366 14.2788C124.258 14.05 124.1 13.8356 123.892 13.6354C123.683 13.4352 123.425 13.2707 123.116 13.142C122.806 13.0132 122.436 12.949 122.005 12.949C121.401 12.949 120.869 13.1205 120.409 13.4639C119.949 13.807 119.626 14.2862 119.439 14.901ZM110.326 19.2558C109.952 19.2558 109.596 19.1879 109.258 19.052C108.92 18.9161 108.622 18.7195 108.363 18.4621C108.104 18.2046 107.896 17.8899 107.738 17.5182C107.58 17.1463 107.501 16.7243 107.501 16.2524C107.501 15.7806 107.58 15.3586 107.738 14.9869C107.896 14.6149 108.104 14.3004 108.363 14.043C108.622 13.7856 108.92 13.589 109.258 13.453C109.596 13.3171 109.952 13.2493 110.326 13.2493C110.699 13.2493 111.055 13.3207 111.393 13.4639C111.731 13.6068 112.029 13.807 112.288 14.0644C112.547 14.3218 112.755 14.6365 112.913 15.0083C113.071 15.3802 113.15 15.7948 113.15 16.2524C113.15 16.7101 113.071 17.1248 112.913 17.4968C112.755 17.8685 112.547 18.1832 112.288 18.4404C112.029 18.6981 111.731 18.8981 111.393 19.0412C111.055 19.1841 110.699 19.2558 110.326 19.2558ZM100.247 21.5081H103.072V10.997H100.247V21.5081ZM93.4224 19.2558C93.0487 19.2558 92.6929 19.1879 92.3552 19.052C92.0172 18.9161 91.719 18.7195 91.4602 18.4621C91.2014 18.2046 90.9929 17.8899 90.8348 17.5182C90.6768 17.1463 90.5977 16.7243 90.5977 16.2524C90.5977 15.7806 90.6768 15.3586 90.8348 14.9869C90.9929 14.6149 91.2014 14.3004 91.4602 14.043C91.719 13.7856 92.0172 13.589 92.3552 13.453C92.6929 13.3171 93.0487 13.2493 93.4224 13.2493C93.7963 13.2493 94.152 13.3207 94.4899 13.4639C94.8278 13.6068 95.1262 13.807 95.3848 14.0644C95.6436 14.3218 95.852 14.6365 96.01 15.0083C96.1682 15.3802 96.2472 15.7948 96.2472 16.2524C96.2472 16.7101 96.1682 17.1248 96.01 17.4968C95.852 17.8685 95.6436 18.1832 95.3848 18.4404C95.1262 18.6981 94.8278 18.8981 94.4899 19.0412C94.152 19.1841 93.7963 19.2558 93.4224 19.2558ZM90.7702 20.2425V26.1415H87.9453V10.997H90.5977V12.2625C91.1239 11.7026 91.5839 11.3236 91.9777 11.1255C92.5687 10.8285 93.1996 10.6537 94.0047 10.6537C94.6805 10.6537 95.3238 10.793 95.9347 11.072C96.5457 11.3509 97.0848 11.7369 97.5518 12.2303C98.0191 12.7238 98.3893 13.3137 98.6624 14.0001C98.9357 14.6866 99.0723 15.4373 99.0723 16.2524C99.0723 17.0676 98.9357 17.8185 98.6624 18.5049C98.3893 19.1913 98.0191 19.7813 97.5518 20.2747C97.0848 20.7682 96.5457 21.1543 95.9347 21.433C95.3238 21.7119 94.6805 21.8512 94.0047 21.8512C93.1996 21.8512 92.5239 21.694 91.9777 21.3794C91.4314 21.0649 91.029 20.6859 90.7702 20.2425Z" fill="#00ADB3"/>
</svg>
